<?xml version="1.0" encoding="UTF-8"?>
<!-- Svg Vector Icons : http://www.onlinewebfonts.com/icon -->
<!DOCTYPE svg PUBLIC "-//W3C//DTD SVG 1.1//EN" "http://www.w3.org/Graphics/SVG/1.1/DTD/svg11.dtd">
<svg version="1.1" xmlns="http://www.w3.org/2000/svg" xmlns:xlink="http://www.w3.org/1999/xlink" x="0px" y="0px" viewBox="0 0 1000 1000" enable-background="new 0 0 1000 1000" xml:space="preserve">
<metadata> Svg Vector Icons : http://www.onlinewebfonts.com/icon </metadata>
<g><path d="M684.8,378.7h139.1v139.1H684.8V378.7z"/><path d="M684.8,549.2h139.1v138.9H684.8V549.2z"/><path d="M786.1,50.7c0-22.3-18.4-40.7-40.7-40.7h-7.3c-22.3,0-40.7,18.4-40.7,40.7v77.2h88.6L786.1,50.7L786.1,50.7z"/><path d="M515.2,375.1h139.1V514H515.2V375.1z"/><path d="M309,50.7c0-22.3-18.4-40.7-40.9-40.7h-7c-22.5,0-40.9,18.4-40.9,40.7v77.2H309L309,50.7L309,50.7z"/><path d="M345.5,376.9h138.8v139.1H345.5V376.9L345.5,376.9z"/><path d="M172,722.6h138.8v139.1H172V722.6z"/><path d="M175.6,551h139.1v139.1H175.6V551z"/><path d="M851.8,127.9h-65.8v85.8c0,22.3-18.4,40.7-40.7,40.7h-7.3c-22.3,0-40.7-18.4-40.7-40.7v-85.8H309v85.8c0,22.3-18.4,40.7-40.9,40.7h-7c-22.5,0-40.9-18.4-40.9-40.7v-85.8h-72c-43.5,0-79,35.5-79,79v704c0,43.5,35.5,79,79,79h526l256.7-260.7V206.9C930.8,163.4,895.4,127.9,851.8,127.9z M892.5,732.9l-155.1-0.5c-43.5-0.3-70.7,28.5-70.4,71.8l0.8,146.9H145.8c-19.7,0-40.4-13-40.4-36.3V288.3l787.1-0.3V732.9z"/><path d="M345.5,547.2h138.8v139.2H345.5V547.2z"/><path d="M175.6,380.5h139.1v139.1H175.6V380.5L175.6,380.5z"/><path d="M515.2,545.3h139.1v139.1H515.2V545.3z"/><path d="M341.6,719h139.1v139.1H341.6V719z"/></g>
</svg>