<?xml version="1.0" encoding="UTF-8"?>
<svg id="Layer_1" data-name="Layer 1" xmlns="http://www.w3.org/2000/svg" width="1080" height="441.36" viewBox="0 0 1080 441.36">
  <path d="m147.12,220.68c0-40.56,32.99-73.56,73.56-73.56s73.56,32.99,73.56,73.56-32.99,73.56-73.56,73.56-73.56-32.99-73.56-73.56Zm99.8-34.14v11.19l-31.13,42.23h31.13v14.85h-20.07v12.3h-12.34v-12.3h-20.07v-11.19l31.1-42.23h-31.1v-14.85h20.07v-12.34h12.34v12.34h20.07Z" style="fill: #f4b728; fill-rule: evenodd;"/>
  <path d="m441.81,256.18l56.49-70.98h-54.32v-15.21h73.15v15.21l-56.49,70.98h57.94v15.21h-76.77v-15.21Z"/>
  <path d="m681.97,169.99h17.38l40.56,101.4h-16.66l-10.14-26.07h-44.91l-10.14,26.07h-16.66l40.56-101.4Zm25.35,60.84l-16.66-42.01-16.66,42.01h33.32Z"/>
  <path d="m851.04,169.99h15.93v42.73h49.98v-42.73h15.93v101.4h-15.93v-44.18h-49.98v44.18h-15.93v-101.4Z"/>
  <path d="m771.78,196.79c0-7.39,6.52-13.76,18.83-13.76,6.81,0,12.17,2.46,15.64,4.78,2.03,1.3,4.38,3.43,5.9,5.23l9.66-12.14c-2.06-2.18-4.57-4.13-7.45-5.83-5.36-3.33-13.32-6.52-23.75-6.52-21.58,0-34.77,13.04-34.77,28.25,0,37.66,53.6,23.9,53.6,46.35,0,8.11-7.1,15.21-20.28,15.21-8.69,0-15.06-2.9-19.27-5.79-2.37-1.67-4.85-3.94-6.53-6.5l-9.77,12.28c2.32,2.61,5,4.98,8.19,6.97,5.94,3.91,15.06,7.53,27.38,7.53,22.45,0,36.21-13.76,36.21-29.7,0-37.66-53.6-23.9-53.6-46.35Z"/>
  <path d="m619.63,241.82c-2.21,3.33-5.37,6.25-8.55,8.56-5.36,4.06-13.33,7.97-23.76,7.97-21,0-37.66-16.66-37.66-37.66s16.66-37.66,37.66-37.66c10.43,0,18.25,3.77,23.47,7.68,3.04,2.17,6.34,5.45,8.09,8.15l9.12-11.46c-2.78-3.33-6.03-6.3-9.68-9.01-6.95-5.07-17.09-9.85-31-9.85-30.42,0-53.6,23.18-53.6,52.15s23.18,52.15,53.6,52.15c13.91,0,24.19-5.07,31.29-10.14,3.94-2.85,7.22-5.97,10.12-9.44l-9.1-11.43Z"/>
</svg>